<?xml version="1.0" encoding="UTF-8" standalone="no"?>
<svg
   xmlns:dc="http://purl.org/dc/elements/1.1/"
   xmlns:cc="http://creativecommons.org/ns#"
   xmlns:rdf="http://www.w3.org/1999/02/22-rdf-syntax-ns#"
   xmlns:svg="http://www.w3.org/2000/svg"
   xmlns="http://www.w3.org/2000/svg"
   xmlns:sodipodi="http://sodipodi.sourceforge.net/DTD/sodipodi-0.dtd"
   xmlns:inkscape="http://www.inkscape.org/namespaces/inkscape"
   id="Layer_1"
   data-name="Layer 1"
   viewBox="0 0 208.896 173.67201"
   version="1.1"
   sodipodi:docname="icons.svg"
   width="122.88"
   height="102.16"
   inkscape:version="0.92.3 (2405546, 2018-03-11)">
  <metadata
     id="metadata3722">
    <rdf:RDF>
      <cc:Work
         rdf:about="">
        <dc:format>image/svg+xml</dc:format>
        <dc:type
           rdf:resource="http://purl.org/dc/dcmitype/StillImage" />
        <dc:title>icons</dc:title>
      </cc:Work>
    </rdf:RDF>
  </metadata>
  <defs
     id="defs3720" />
  <sodipodi:namedview
     pagecolor="#ffffff"
     bordercolor="#666666"
     borderopacity="1"
     objecttolerance="10"
     gridtolerance="10"
     guidetolerance="10"
     inkscape:pageopacity="0"
     inkscape:pageshadow="2"
     inkscape:window-width="1616"
     inkscape:window-height="837"
     id="namedview3718"
     showgrid="true"
     scale-x="1.7"
     inkscape:zoom="3.84"
     inkscape:cx="25.187078"
     inkscape:cy="43.529551"
     inkscape:window-x="191"
     inkscape:window-y="89"
     inkscape:window-maximized="0"
     inkscape:current-layer="Layer_1">
    <inkscape:grid
       type="xygrid"
       id="grid3817" />
  </sodipodi:namedview>
  <title
     id="title3713">icons</title>
  <path
     d="m 174.4187,92.758512 a 17,17 0 0 0 1.935,1 c 1.8825,0.8775 3.43,1.6 3.7625,4.5575 a 9.2025,9.2025 0 0 1 0,1.575 v 0 c 0,0.08 0,0.164998 -0.0175,0.364998 l -0.2,4.2 c 1.81,0 3.5575,0.0575 5.0975,0.15 0.3475,-0.08 0.8375,-0.25 1.355,-0.38 l -4.045,-15.077498 -0.5975,0.235 v 0 l -0.2225,0.08 c -1.2975,0.46 -2.2375,0.7925 -3.8825,0.3875 a 0.085,0.085 0 0 1 -0.035,0 c -1.15,-0.445 -1.75,-1.065 -2.3275,-1.6725 l -0.0925,-0.095 -0.75,4.6825 z m -8.1175,-9.7975 2.09,0.15 c 0.53,0.0375 0.8725,0.66 0.7775,1.2325 l -1.1275,6.8125 c -0.09,0.5475 -2.7325,1 -3.35,1.155 -0.515,0.135 -0.875,-0.66 -0.775,-1.2275 l 1.2625,-7.27 a 1.0275,1.0275 0 0 1 1.1225,-0.8525 z m 10.25,21.542498 c 0.0325,-1.6425 0.0875,-2.7325 0.18,-4.5 v -0.267498 a 7.75,7.75 0 0 0 0.0175,-0.8575 2,2 0 0 0 -0.1675,-0.72 l -0.007,-0.075 c -0.1175,-0.25 -0.225,-0.5 -0.385,-0.5675 a 13.58,13.58 0 0 0 -1.4125,-0.5275 c -0.665,-0.2175 -1.405,-0.44 -2.06,-0.625 -0.48,1.5975 -1.1325,3.52 -1.8175,5.349998 -0.535,1.4 -1.25,2.2875 -1.815,3.25 2.1075,-0.25 4.765,-0.405 7.5,-0.47 z m -11.4025,1.315 c 0.6125,-1.5 1.7325,-3.345 2.4225,-5.3225 0.71,-2.032498 1.39,-4.104998 1.89,-5.769998 a 5.32,5.32 0 0 1 -0.7775,-1.2225 2.7325,2.7325 0 0 1 -0.21,-1.6125 l 0.925,-4.9475 c 0.365,-2.66 0.435,-4.095 3.25,-3.9075 2.6575,0.1725 3.9025,1.5725 4.8675,2.6575 0.4275,0.48 0.7975,0.895 1.195,1.085 0.1875,0.09 0.485,-0.035 0.82,-0.1775 a 5.5,5.5 0 0 1 0.6475,-0.25 l 0.29,-0.11 0.1675,-0.0625 0.785,-0.3125 -0.3225,-1.2075 a 0.8525,0.8525 0 0 1 1.645,-0.44 l 0.2725,1.015 0.0375,-0.015 v 0 a 1.265,1.265 0 0 1 1.0325,0.1525 1.81,1.81 0 0 1 0.6,0.5925 1.645,1.645 0 0 1 0.25,0.88 2.1975,2.1975 0 0 1 -0.75,1.525 0.21,0.21 0 0 1 -0.0775,0.0475 l -0.235,0.0925 4.2,15.574998 a 1.075,1.075 0 0 1 0.5775,0.3 3.73,3.73 0 0 1 0.6675,1.0425 l 0.12,0.88 h -24.75 c 0,-0.175 0.1675,-0.3375 0.4625,-0.485 z m 7.72,-30.062497 a 3.185,3.185 0 1 1 -1.8325,1.6125 3.175,3.175 0 0 1 1.8325,-1.6125 z"
     id="path3715"
     inkscape:connector-curvature="0"
     style="stroke-width:0.25"
     inkscape:export-filename="C:\Users\jpasvolsky\pyenv\examples\tour_planning_3_10_2\tour-planning\assets\walk.png"
     inkscape:export-xdpi="96"
     inkscape:export-ydpi="96" />
  <g
     id="g3728"
     transform="matrix(0.25,0,0,0.25,109.44651,77.577297)"
     inkscape:export-filename="C:\Users\jpasvolsky\pyenv\examples\tour_planning_3_10_2\tour-planning\assets\cycle.png"
     inkscape:export-xdpi="96"
     inkscape:export-ydpi="96">
    <path
       inkscape:connector-curvature="0"
       class="st0"
       d="m 99.83,67.01 c 12.72,0 23.05,10.32 23.05,23.05 0,12.72 -10.32,23.05 -23.05,23.05 -12.73,0 -23.05,-10.32 -23.05,-23.05 0,-8.21 3.56,-14.68 10.02,-18.76 l -5.69,-9.56 h -15 c 1.52,-3.28 2.47,-6.09 2.28,-7.7 h 15.32 c 0.63,0 1.22,0.17 1.74,0.47 l 1.61,-3.35 0.36,-0.04 v 0 c 0.14,-0.02 0.29,-0.04 0.44,-0.06 4.12,-0.77 6.58,-3.37 7.6,-6.5 0.46,-1.41 0.58,-2.92 0.39,-4.39 C 95.67,38.74 95.18,37.34 94.43,36.1 94.1,35.56 93.72,35.05 93.3,34.57 h 3.83 v 0.02 c 0.49,0 0.99,0.11 1.47,0.33 1.74,0.81 2.49,2.88 1.67,4.62 L 90.1,60.96 94,67.76 c 1.9,-0.51 3.86,-0.75 5.83,-0.75 z M 34.14,30.59 55.17,15.21 c 2.47,-1.54 5.13,-2.57 7.28,-2.29 1.79,0.24 3.44,1.21 4.94,3.11 4.56,5.69 6.82,13.5 9.34,22.11 L 85.6,37.1 c 5.07,-0.23 6.4,7.22 1.19,8.2 l -9.14,1.01 C 73.57,46.77 70.59,47.9 68.37,43.3 L 63.41,30.86 49.14,40.78 c -0.88,0.92 -1.01,1.83 -0.13,2.75 l 10.71,7.79 c 1.41,0.95 2.6,1.62 2.89,3.51 0.44,2.84 -11.58,21.71 -13.68,25.35 -3.69,4.1 -10.69,0.39 -7.78,-4.58 L 49.29,58.45 C 46.87,57.01 44.52,55.57 42.26,54.13 34.72,49.35 24.69,38.38 34.14,30.59 Z M 81.6,0 c 5.49,0 9.94,4.45 9.94,9.94 0,5.49 -4.45,9.94 -9.94,9.94 -5.49,0 -9.94,-4.45 -9.94,-9.94 C 71.66,4.45 76.11,0 81.6,0 Z M 41.25,61.73 h -4.77 l -2.83,8.23 c 1.03,0.49 2,1.04 2.91,1.64 l -0.68,1.44 c -1.09,2.03 -1.45,4.03 -1.24,5.88 -1.3,-1.35 -2.83,-2.48 -4.54,-3.31 v 0 l -5.76,13.02 c -0.77,1.76 -2.83,2.56 -4.59,1.79 -1.76,-0.77 -2.56,-2.83 -1.78,-4.59 l 5.24,-11.84 c -0.05,0 -0.11,0 -0.16,0 -8.88,0 -16.07,7.2 -16.07,16.08 0,8.87 7.2,16.07 16.07,16.07 8.88,0 16.07,-7.2 16.07,-16.07 0,-1.56 -0.22,-3.06 -0.63,-4.49 0.15,0.11 0.3,0.22 0.46,0.33 1.28,0.87 2.76,1.47 4.3,1.72 0.9,0.15 1.82,0.19 2.75,0.12 0.07,0.76 0.1,1.53 0.1,2.32 0,12.72 -10.32,23.05 -23.05,23.05 C 10.32,113.11 0,102.78 0,90.06 0,77.33 10.32,67.01 23.05,67.01 c 1.07,0 2.12,0.07 3.16,0.21 L 30.3,56.11 c 0.47,-1.08 1.43,-1.8 2.51,-2.01 2.06,1.97 4.27,3.67 6.31,4.96 0.62,0.39 1.5,0.94 2.62,1.63 z M 22.13,38.32 h 2.32 c 0.04,1.14 0.2,2.29 0.49,3.43 0.6,2.43 1.75,4.76 3.23,6.93 h -6.03 v 0 0 c -1.13,0 -2.17,-0.47 -2.93,-1.22 -0.77,-0.77 -1.24,-1.82 -1.24,-2.98 v 0 0 -1.94 0 0 c 0,-1.17 0.47,-2.23 1.24,-2.98 0.74,-0.77 1.78,-1.23 2.92,-1.24 z m 75.97,35.75 5.59,8.61 c 1.05,1.61 0.59,3.76 -1.02,4.81 -1.61,1.05 -3.76,0.59 -4.81,-1.02 L 91.33,76.41 c -4.55,2.84 -7.58,7.89 -7.58,13.65 0,8.87 7.2,16.07 16.08,16.07 8.88,0 16.08,-7.2 16.08,-16.07 0,-8.88 -7.2,-16.08 -16.08,-16.08 -0.58,-0.01 -1.16,0.03 -1.73,0.09 z"
       id="path3726" />
  </g>
  <g
     id="g3759"
     transform="matrix(-0.25,0,0,0.25,45.378331,87.6915)"
     inkscape:export-filename="C:\Users\jpasvolsky\pyenv\examples\tour_planning_3_10_2\tour-planning\assets\bus.png"
     inkscape:export-xdpi="96"
     inkscape:export-ydpi="96">
    <path
       class="st0"
       d="m 29.34,41.02 c -12.27,0 -18.31,10.91 -15.43,22.31 H 5.5 C 1.89,61.72 0.39,58.4 0,54.17 V 47.21 C 0,41.53 0,35.85 0,29.69 0,24.95 3.02,22.58 9.1,22.58 h 4.35 L 22.2,4.35 C 23.41,1.45 25.61,0 28.72,0 h 16.93 v 0.1 h 69.13 c 5.16,0.05 7.96,2.51 8.11,7.68 v 55.55 h -6.98 c 4.2,-10.86 -3.59,-22.27 -15.12,-22.27 -11.55,0 -19.35,11.4 -15.14,22.27 H 45.39 C 47.53,52.59 41.3,41.02 29.34,41.02 Z m 11.92,16.72 c 0,3.47 -1.15,6.44 -3.49,8.89 -2.32,2.45 -5.14,3.69 -8.43,3.69 -3.32,0 -6.14,-1.24 -8.46,-3.69 -2.32,-2.45 -3.49,-5.42 -3.49,-8.89 0,-3.47 1.17,-6.44 3.49,-8.89 2.32,-2.47 5.14,-3.69 8.46,-3.69 3.29,0 6.11,1.21 8.43,3.69 2.34,2.45 3.49,5.43 3.49,8.89 z m 71.35,0 c 0,3.47 -1.15,6.44 -3.49,8.89 -2.32,2.45 -5.14,3.69 -8.43,3.69 -3.32,0 -6.14,-1.24 -8.46,-3.69 -2.32,-2.45 -3.49,-5.42 -3.49,-8.89 0,-3.47 1.17,-6.44 3.49,-8.89 2.32,-2.47 5.14,-3.69 8.46,-3.69 3.29,0 6.11,1.21 8.43,3.69 2.34,2.45 3.49,5.43 3.49,8.89 z m -11.94,-4 c 2.21,0 4,1.79 4,4 0,2.21 -1.79,4 -4,4 -2.21,0 -4,-1.79 -4,-4 0,-2.21 1.79,-4 4,-4 z m -71.35,0 c 2.21,0 4,1.79 4,4 0,2.21 -1.79,4 -4,4 -2.21,0 -4,-1.79 -4,-4 0,-2.21 1.79,-4 4,-4 z M 52.54,8.05 H 67.62 V 28.12 H 52.54 Z M 37.62,32.16 h 6.21 v 1.7 h -6.21 z m 6.21,-4.04 V 8.05 H 28.76 L 20.79,28.12 Z M 99.61,8.05 h 15.08 V 28.12 H 99.61 Z m -23.06,0 H 91.63 V 28.12 H 76.55 Z"
       id="path3757"
       inkscape:connector-curvature="0"
       style="clip-rule:evenodd;fill-rule:evenodd" />
  </g>
  <g
     transform="matrix(-0.375,0,0,0.375,102.52149,91.474741)"
     id="g3790"
     inkscape:export-filename="C:\Users\jpasvolsky\pyenv\examples\tour_planning_3_10_2\tour-planning\assets\car.png"
     inkscape:export-xdpi="96"
     inkscape:export-ydpi="96">
    <path
       inkscape:connector-curvature="0"
       class="st0"
       d="m 99.42,13.57 c 5.93,0 10.73,4.8 10.73,10.73 0,5.93 -4.8,10.73 -10.73,10.73 -5.93,0 -10.73,-4.8 -10.73,-10.73 0,-5.93 4.8,-10.73 10.73,-10.73 z M 79.05,5 c -0.59,1.27 -1.06,2.69 -1.42,4.23 -0.82,2.57 0.39,3.11 3.19,2.06 C 82.88,10.06 84.94,8.82 87,7.59 88.05,6.85 88.55,6.12 88.38,5.4 88.04,3.98 85.3,3.24 83.05,2.8 80.19,2.23 80.39,2.11 79.05,5 Z M 23.86,19.31 c 2.75,0 4.99,2.23 4.99,4.99 0,2.75 -2.23,4.99 -4.99,4.99 -2.75,0 -4.99,-2.23 -4.99,-4.99 0,-2.76 2.23,-4.99 4.99,-4.99 z m 75.56,0 c 2.75,0 4.99,2.23 4.99,4.99 0,2.75 -2.23,4.99 -4.99,4.99 -2.75,0 -4.99,-2.23 -4.99,-4.99 0,-2.76 2.23,-4.99 4.99,-4.99 z M 46.14,12.5 C 48.91,9.53 52.11,7.6 55.81,5.74 63.91,1.66 68.87,2.16 77.47,2.16 l -2.89,7.5 c -1.21,1.6 -2.58,2.73 -4.66,2.84 z m -22.28,1.07 c 5.93,0 10.73,4.8 10.73,10.73 0,5.93 -4.8,10.73 -10.73,10.73 -5.93,0 -10.73,-4.8 -10.73,-10.73 0,-5.93 4.8,-10.73 10.73,-10.73 z M 40.82,10.3 c 3.52,-2.19 7.35,-4.15 11.59,-5.82 12.91,-5.09 22.78,-6 36.32,-1.9 4.08,1.55 8.16,3.1 12.24,4.06 4.03,0.96 21.48,1.88 21.91,4.81 l -4.31,5.15 c 1.57,1.36 2.85,3.03 3.32,5.64 -0.13,1.61 -0.57,2.96 -1.33,4.04 -1.29,1.85 -5.07,3.76 -7.11,2.67 C 112.8,28.6 112.43,27.9 112.44,26.71 112.5,2.81 83.65,5.53 85.82,29.53 H 35.48 C 44.8,5.49 5.04,5.4 12.1,28.7 9.62,31.38 3.77,27.34 0,18.75 1.03,17.73 2.16,16.76 3.42,15.86 3.36,15.81 3.48,16.05 3.27,15.69 3.06,15.33 3.78,13.82 5.26,12.95 13.02,8.4 31.73,8.52 40.82,10.3 Z"
       id="path3788" />
  </g>
  <path
     inkscape:connector-curvature="0"
     class="cls-1"
     d="m 75.818902,54.862187 6.28894,-35.107122 h 2.11331 l -0.82238,5.651438 a 1.3993125,1.3993125 0 0 0 -0.14981,0.08606 1.632,1.632 0 0 0 -0.73631,1.02 1.6734375,1.6734375 0 0 0 0.17531,1.21125 2.0941875,2.0941875 0 0 0 0.27094,0.388875 c -1.08375,1.437563 -0.93394,3.286313 -0.765,5.304 l 0.0191,0.207188 v 0.03506 l -3.08231,21.203251 z m 35.633048,-6.79575 -10.37849,10.85663 -5.737508,-5.34225 0.59288,-0.83513 4.213868,3.88238 0.0541,0.051 a 0.9849375,0.9849375 0 0 0 1.38975,-0.0669 l 0.33788,-0.37294 v 0 l 1.59375,-1.77544 7.07306,-7.2165 0.867,0.80644 z m -0.2805,-2.81137 -10.3785,10.85981 -5.753428,-5.34544 10.378498,-10.85662 5.7375,5.34544 z m -6.5535,2.295 a 1.785,1.785 0 1 1 -2.28543,-1.07419 1.7881875,1.7881875 0 0 1 2.28543,1.07419 z m 3.95888,-1.25588 -6.93919,7.14638 a 1.1634375,1.1634375 0 0 0 -1.638368,0.0637 l -2.27588,-2.11331 a 1.1570625,1.1570625 0 0 0 -0.0605,-1.63519 l 6.939178,-7.15275 a 1.1634375,1.1634375 0 0 0 1.63837,-0.0605 l 2.27588,2.11013 a 1.1634375,1.1634375 0 0 0 0.0605,1.64156 z M 84.823592,28.013878 c -1.6575,-0.8415 -1.46944,-1.781813 0.19762,-1.683 l 0.36019,0.698062 0.76819,-2.390625 c 0.30281,-0.95625 0.80325,-1.794562 1.79137,-1.794562 h 9.83981 c 0.98812,0 1.5555,0.838312 1.79456,1.794562 l 0.576938,2.317313 0.31875,-0.6375 c 1.71168,-0.102 1.86468,0.895687 0.051,1.753125 l 0.29643,0.452625 c 1.18894,1.224 1.07738,2.444812 0.8925,5.46975 v 0.9945 a 0.56100004,0.56100004 0 0 1 -0.561,0.561 h -2.381058 a 0.56100004,0.56100004 0 0 1 -0.561,-0.561 V 34.55144 h -11.29012 v 0.449438 a 0.56100004,0.56100004 0 0 1 -0.561,0.561 h -2.39062 a 0.56418754,0.56418754 0 0 1 -0.561,-0.561 v -1.275 a 0.67893754,0.67893754 0 0 1 0,-0.08606 c -0.18169,-2.323687 -0.43669,-4.414687 1.41206,-5.61 z m 3.05043,2.750812 -2.12287,-0.26775 c -0.50044,-0.05419 -0.6375,0.156188 -0.46538,0.589688 l 0.2295,0.554625 a 0.7905,0.7905 0 0 0 0.28688,0.31875 0.95625,0.95625 0 0 0 0.47494,0.130687 h 1.89337 c 0.459,0 0.65663,-0.184875 0.51319,-0.605625 a 1.026375,1.026375 0 0 0 -0.80963,-0.7395 z m 9.38081,0 2.12287,-0.26775 c 0.50044,-0.05419 0.637498,0.156188 0.46538,0.589688 l -0.22949,0.554625 a 0.8191875,0.8191875 0 0 1 -0.29007,0.31875 0.95625,0.95625 0 0 1 -0.47494,0.130687 h -1.89338 c -0.45581,0 -0.63749,-0.184875 -0.51,-0.605625 a 1.026375,1.026375 0 0 1 0.80963,-0.7395 z m -11.06381,-3.209812 h 13.107 l -0.57693,-2.403375 c -0.15939,-0.729938 -0.6152,-1.36425 -1.36745,-1.36425 h -9.0748 c -0.74907,0 -1.13475,0.6375 -1.36744,1.36425 z m 7.22288,8.204625 0.0861,1.912504 h -1.93162 l 0.13068,-1.912504 z m -2.46713,12.169874 h 3.1875 l 0.11475,1.224 -0.89887,0.92119 a 1.2144375,1.2144375 0 0 0 0.0637,1.71806 l 0.72356,0.67256 -0.55462,0.78094 a 1.1985,1.1985 0 0 0 -0.23907,0.87975 h -2.91656 z m 0.49088,-7.45556 h 2.27587 l 0.23588,4.65694 h -2.76675 z m 11.771428,-20.718752 3.1875,18.296252 a 1.2144375,1.2144375 0 0 0 -1.64474,0.10519 l -0.9212,0.95625 -0.85744,-5.737504 c 0.14663,-2.438438 0.17532,-3.738938 -0.69806,-4.98525 a 2.5021875,2.5021875 0 0 0 0.51956,-0.621563 1.69575,1.69575 0 0 0 0.21357,-1.201687 1.612875,1.612875 0 0 0 -0.73313,-1.05825 2.0623125,2.0623125 0 0 0 -0.51319,-0.239063 l -0.81918,-5.514375 z"
     id="path843"
     style="stroke-width:0.31875002"
     inkscape:export-xdpi="96"
     inkscape:export-ydpi="96" />
</svg>
